HIERARCHY
ROOT Hips
{
	OFFSET 0.00000 0.00000 0.00000
	CHANNELS 6 Xposition Yposition Zposition Zrotation Yrotation Xrotation 
	JOINT LHipJoint
	{
		OFFSET 0 0 0
		CHANNELS 3 Zrotation Yrotation Xrotation
		JOINT LeftHip
		{
			OFFSET 1.57314 -1.85774 0.63783
			CHANNELS 3 Zrotation Yrotation Xrotation
			JOINT LeftKnee
			{
				OFFSET 2.57982 -7.08799 0.00000
				CHANNELS 3 Zrotation Yrotation Xrotation
				JOINT LeftAnkle
				{
					OFFSET 2.63993 -7.25315 0.00000
					CHANNELS 3 Zrotation Yrotation Xrotation
					JOINT LeftToe
					{
						OFFSET 0.16864 -0.46332 2.12791
						CHANNELS 3 Zrotation Yrotation Xrotation
						End Site
						{
							OFFSET 0.00000 -0.00000 1.09718
						}
					}
				}
			}
		}
	}
	JOINT RHipJoint
	{
		OFFSET 0 0 0
		CHANNELS 3 Zrotation Yrotation Xrotation
		JOINT RightHip
		{
			OFFSET -1.56006 -1.85774 0.63784
			CHANNELS 3 Zrotation Yrotation Xrotation
			JOINT RightKnee
			{
				OFFSET -2.54246 -6.98536 0.00000
				CHANNELS 3 Zrotation Yrotation Xrotation
				JOINT RightAnkle
				{
					OFFSET -2.65791 -7.30256 0.00000
					CHANNELS 3 Zrotation Yrotation Xrotation
					JOINT RightToe
					{
						OFFSET -0.18435 -0.50650 2.16316
						CHANNELS 3 Zrotation Yrotation Xrotation
						End Site
						{
							OFFSET -0.00000 -0.00000 1.11780
						}
					}
				}
			}
		}
	}
	JOINT lowerback
	{
		OFFSET 0 0 0
		CHANNELS 3 Zrotation Yrotation Xrotation
		JOINT Chest
		{
			OFFSET -0.00136 1.92812 -0.29638
			CHANNELS 3 Zrotation Yrotation Xrotation
			JOINT Chest2
			{
				OFFSET -0.00528 1.96223 -0.02928
				CHANNELS 3 Zrotation Yrotation Xrotation
				JOINT lowerneck
				{
					OFFSET 0 0 0
					CHANNELS 3 Zrotation Yrotation Xrotation
					JOINT Neck
					{
						OFFSET -0.01015 1.75586 0.07797
						CHANNELS 3 Zrotation Yrotation Xrotation
						JOINT Head
						{
							OFFSET 0.05540 1.72452 0.04558
							CHANNELS 3 Zrotation Yrotation Xrotation
							End Site
							{
								OFFSET 0.02170 1.79958 0.00864
							}
						}
					}
				}
				JOINT LeftCollar
				{
					OFFSET 0 0 0
					CHANNELS 3 Zrotation Yrotation Xrotation
					JOINT LeftShoulder
					{
						OFFSET 3.16292 1.29277 -0.65728
CHANNELS 3 Zrotation Xrotation Yrotation
						JOINT LeftElbow
						{
OFFSET 0 -5.523020 -0.000000
CHANNELS 3 Zrotation Xrotation Yrotation
							JOINT LeftWrist
							{
OFFSET 0 -3.586750 -0.000000
CHANNELS 3 Zrotation Xrotation Yrotation
								JOINT lhand
								{
									OFFSET 0 0 0
CHANNELS 3 Zrotation Xrotation Yrotation
									JOINT LFingers
									{
OFFSET 0 -0.536410 -0.000000
CHANNELS 3 Zrotation Xrotation Yrotation
										End Site
										{
OFFSET 0 -0.432470 -0.000000
										}
									}
								}
								JOINT LThumb
								{
OFFSET 0 0.000000 0.000000
CHANNELS 3 Zrotation Xrotation Yrotation
									End Site
									{
OFFSET 0 -0.439070 0.439070
									}
								}
							}
						}
					}
				}
				JOINT RightCollar
				{
					OFFSET 0 0 0
					CHANNELS 3 Zrotation Yrotation Xrotation
					JOINT RightShoulder
					{
						OFFSET -3.08296 1.43376 -0.52927
CHANNELS 3 Zrotation Xrotation Yrotation
						JOINT RightElbow
						{
OFFSET 0 -5.847800 0.000000
CHANNELS 3 Zrotation Xrotation Yrotation
							JOINT RightWrist
							{
OFFSET 0 -3.627170 -0.000000
CHANNELS 3 Zrotation Xrotation Yrotation
								JOINT rhand
								{
									OFFSET 0 0 0
CHANNELS 3 Zrotation Xrotation Yrotation
									JOINT RFingers
									{
OFFSET 0 -0.650520 -0.000000
CHANNELS 3 Zrotation Xrotation Yrotation
										End Site
										{
OFFSET 0 -0.524460 -0.000000
										}
									}
								}
								JOINT RThumb
								{
OFFSET 0 0.000000 0.000000
CHANNELS 3 Zrotation Xrotation Yrotation
									End Site
									{
OFFSET 0 -0.532470 0.532470
									}
								}
							}
						}
					}
				}
			}
		}
	}
}
MOTION
Frames: 11
Frame Time: 0.008333333333333333
0.577816 18.465575 10.900405 -5.810434 -0.563881 9.933078 0.000000 0.000000 0.000000 -4.814666 -17.227945 -53.129985 15.959604 19.594383 78.105346 0.420899 1.015567 11.947533 0.437626 -4.244428 -11.765361 0.000000 0.000000 0.000000 30.725218 -0.322387 18.443649 -0.339791 -3.727793 10.314090 -1.557032 -19.127124 24.344521 -0.178006 -2.634657 7.268674 6.830527 1.154221 11.368541 0.070610 2.473390 -0.735463 -4.195593 0.957444 -6.893514 -0.331340 -0.271809 -4.507285 0.409552 -0.335271 -4.975514 0.175670 -0.162894 -0.774205 0.000000 0.000000 0.000000 8.412281 36.703392 -45.777167 124.573468 -54.962413 89.435015 38.227847 -30.979066 -11.175284 0.000000 0.000000 0.000000 -7.125000 0.000000 0.000000 10.235251 43.857073 0.289018 0.000000 0.000000 0.000000 -11.696176 -18.135821 39.736008 -115.170551 -57.464531 -81.612702 -44.033524 -29.160149 -26.835166 0.000000 0.000000 0.000000 7.125000 0.000000 0.000000 -8.034768 -4.846850 -8.768495
0.576447 18.490326 11.057615 -5.827902 -0.441442 9.924235 0.000000 0.000000 0.000000 -4.724397 -17.499435 -52.969955 15.476612 19.482348 76.655438 0.418298 0.736302 11.992599 0.425278 -4.184085 -11.595283 0.000000 0.000000 0.000000 30.692254 -0.575560 19.187946 -0.292973 -3.440779 9.512269 -1.756296 -19.612772 25.618163 -0.263018 -3.158170 8.731423 6.879782 1.148663 11.286623 0.031431 2.463369 -0.735189 -4.260180 0.952133 -6.844341 -0.363620 -0.316026 -4.663454 0.506857 -0.390412 -4.814143 0.209209 -0.190081 -0.699214 0.000000 0.000000 0.000000 8.355442 36.886776 -45.687501 124.725805 -54.912638 89.559644 37.996741 -31.371598 -10.947053 0.000000 0.000000 0.000000 -7.125000 0.000000 0.000000 10.003954 43.545418 0.357055 0.000000 0.000000 0.000000 -11.817328 -18.144062 39.950823 -115.464054 -57.400793 -81.859907 -44.146572 -29.389448 -27.014498 0.000000 0.000000 0.000000 7.125000 0.000000 0.000000 -8.051305 -5.104349 -8.819885
0.575078 18.515076 11.214825 -5.845369 -0.319003 9.915391 0.000000 0.000000 0.000000 -4.634129 -17.770925 -52.809925 14.993619 19.370313 75.205530 0.415697 0.457036 12.037664 0.412930 -4.123742 -11.425205 0.000000 0.000000 0.000000 30.659289 -0.828733 19.932243 -0.246155 -3.153766 8.710449 -1.955560 -20.098420 26.891805 -0.348029 -3.681683 10.194171 6.929037 1.143105 11.204705 -0.007748 2.453348 -0.734916 -4.324767 0.946821 -6.795168 -0.395899 -0.360243 -4.819624 0.604162 -0.445553 -4.652771 0.242748 -0.217268 -0.624223 0.000000 0.000000 0.000000 8.298603 37.070161 -45.597835 124.878141 -54.862863 89.684273 37.765635 -31.764131 -10.718822 0.000000 0.000000 0.000000 -7.125000 0.000000 0.000000 9.772656 43.233763 0.425092 0.000000 0.000000 0.000000 -11.938480 -18.152303 40.165638 -115.757556 -57.337054 -82.107112 -44.259619 -29.618747 -27.193831 0.000000 0.000000 0.000000 7.125000 0.000000 0.000000 -8.067842 -5.361848 -8.871276
0.573709 18.539827 11.372035 -5.862837 -0.196564 9.906548 0.000000 0.000000 0.000000 -4.543860 -18.042414 -52.649895 14.510627 19.258278 73.755623 0.413096 0.177771 12.082730 0.400582 -4.063399 -11.255127 0.000000 0.000000 0.000000 30.626325 -1.081907 20.676540 -0.199337 -2.866752 7.908629 -2.154824 -20.584068 28.165447 -0.433041 -4.205196 11.656920 6.978292 1.137547 11.122787 -0.046928 2.443328 -0.734642 -4.389354 0.941510 -6.745996 -0.428179 -0.404460 -4.975794 0.701467 -0.500694 -4.491399 0.276287 -0.244456 -0.549232 0.000000 0.000000 0.000000 8.241764 37.253545 -45.508169 125.030478 -54.813088 89.808902 37.534530 -32.156663 -10.490591 0.000000 0.000000 0.000000 -7.125000 0.000000 0.000000 9.541359 42.922108 0.493129 0.000000 0.000000 0.000000 -12.059632 -18.160544 40.380454 -116.051059 -57.273316 -82.354316 -44.372667 -29.848046 -27.373163 0.000000 0.000000 0.000000 7.125000 0.000000 0.000000 -8.084379 -5.619347 -8.922666
0.574266 18.561329 11.527667 -5.950919 -0.059506 9.912811 0.000000 0.000000 0.000000 -4.372396 -18.288541 -52.496084 14.033575 19.108790 72.293555 0.410147 -0.120801 12.152997 0.400092 -4.061162 -11.248785 0.000000 0.000000 0.000000 30.688039 -1.283077 21.270235 -0.174169 -2.674091 7.373507 -2.311762 -20.802576 29.040770 -0.558778 -4.717687 13.118903 7.134569 1.125190 11.052333 -0.078287 2.440895 -0.761425 -4.508288 0.934203 -6.728081 -0.451734 -0.428395 -5.046150 0.801858 -0.529776 -4.371333 0.309827 -0.258532 -0.500950 0.000000 0.000000 0.000000 8.219734 37.444564 -45.452591 125.236233 -54.744215 89.976832 37.421632 -32.466561 -10.179587 0.000000 0.000000 0.000000 -7.125000 0.000000 0.000000 9.417664 42.526822 0.577711 0.000000 0.000000 0.000000 -12.149364 -18.113231 40.571785 -116.367999 -57.201247 -82.620619 -44.277563 -29.659695 -27.320836 0.000000 0.000000 0.000000 7.125000 0.000000 0.000000 -8.045084 -5.518695 -8.865966
0.575169 18.582246 11.683015 -6.051701 0.080181 9.921792 0.000000 0.000000 0.000000 -4.186329 -18.530105 -52.343391 13.557592 18.952566 70.829301 0.407136 -0.422846 12.227796 0.401735 -4.069375 -11.271893 0.000000 0.000000 0.000000 30.766780 -1.474894 21.836842 -0.152896 -2.498401 6.886353 -2.461087 -20.973038 29.844452 -0.691840 -5.228195 14.580748 7.310096 1.111610 10.983940 -0.108239 2.439827 -0.793075 -4.636997 0.926536 -6.715788 -0.473719 -0.448683 -5.101072 0.902804 -0.554171 -4.258696 0.343366 -0.270250 -0.457472 0.000000 0.000000 0.000000 8.203963 37.636956 -45.403145 125.451596 -54.671907 90.152550 37.329994 -32.761596 -9.853695 0.000000 0.000000 0.000000 -7.125000 0.000000 0.000000 9.313323 42.116493 0.665269 0.000000 0.000000 0.000000 -12.233444 -18.055927 40.758893 -116.689154 -57.127680 -82.890357 -44.145021 -29.396227 -27.226844 0.000000 0.000000 0.000000 7.125000 0.000000 0.000000 -7.995747 -5.353627 -8.789825
0.576073 18.603164 11.838364 -6.152483 0.219869 9.930772 0.000000 0.000000 0.000000 -4.000262 -18.771670 -52.190699 13.081609 18.796342 69.365046 0.404124 -0.724891 12.302596 0.403378 -4.077589 -11.295001 0.000000 0.000000 0.000000 30.845522 -1.666711 22.403450 -0.131623 -2.322710 6.399199 -2.610412 -21.143499 30.648134 -0.824902 -5.738703 16.042593 7.485623 1.098030 10.915548 -0.138192 2.438759 -0.824726 -4.765705 0.918870 -6.703494 -0.495705 -0.468971 -5.155994 1.003751 -0.578565 -4.146059 0.376905 -0.281968 -0.413994 0.000000 0.000000 0.000000 8.188193 37.829348 -45.353698 125.666959 -54.599599 90.328268 37.238357 -33.056632 -9.527803 0.000000 0.000000 0.000000 -7.125000 0.000000 0.000000 9.208982 41.706164 0.752827 0.000000 0.000000 0.000000 -12.317525 -17.998623 40.946001 -117.010309 -57.054113 -83.160094 -44.012480 -29.132759 -27.132852 0.000000 0.000000 0.000000 7.125000 0.000000 0.000000 -7.946410 -5.188559 -8.713684
0.576955 18.623691 11.993520 -6.241918 0.349577 9.944710 0.000000 0.000000 0.000000 -3.833335 -18.999735 -52.031104 12.604653 18.629780 67.887645 0.401305 -1.032636 12.389308 0.411089 -4.113914 -11.397580 0.000000 0.000000 0.000000 30.925172 -1.833376 22.917533 -0.114895 -2.185034 6.017432 -2.743966 -21.239020 31.349886 -0.953486 -6.211805 17.402428 7.643343 1.087394 10.847379 -0.167231 2.439337 -0.858395 -4.883719 0.912476 -6.693942 -0.511258 -0.488644 -5.191380 1.086042 -0.602714 -4.060037 0.403857 -0.293724 -0.381789 0.000000 0.000000 0.000000 8.166632 38.015703 -45.301575 125.884363 -54.526105 90.505525 37.145993 -33.328894 -9.197985 0.000000 0.000000 0.000000 -7.125000 0.000000 0.000000 9.104021 41.291263 0.839738 0.000000 0.000000 0.000000 -12.403118 -17.933353 41.132591 -117.340466 -56.977490 -83.437188 -43.827723 -28.812728 -27.015691 0.000000 0.000000 0.000000 7.125000 0.000000 0.000000 -7.873231 -4.976159 -8.605821
0.577749 18.642610 12.147882 -6.284547 0.438120 9.979098 0.000000 0.000000 0.000000 -3.745367 -19.172113 -51.843038 12.123687 18.420577 66.356011 0.399279 -1.363894 12.525163 0.443835 -4.266195 -11.827977 0.000000 0.000000 0.000000 31.008569 -1.896293 23.214950 -0.116921 -2.204172 6.070383 -2.812468 -21.025409 31.631178 -1.063605 -6.530606 18.341472 7.727616 1.088900 10.780137 -0.192502 2.446702 -0.900394 -4.957615 0.911326 -6.695694 -0.500279 -0.505783 -5.146177 1.091381 -0.625849 -4.083802 0.403638 -0.305634 -0.396080 0.000000 0.000000 0.000000 8.121183 38.177157 -45.238412 126.110184 -54.447719 90.689128 37.050632 -33.507213 -8.851969 0.000000 0.000000 0.000000 -7.125000 0.000000 0.000000 8.996504 40.857498 0.923983 0.000000 0.000000 0.000000 -12.494947 -17.835227 41.317043 -117.707755 -56.888262 -83.744626 -43.427580 -28.259372 -26.802956 0.000000 0.000000 0.000000 7.125000 0.000000 0.000000 -7.701702 -4.568514 -8.367104
0.578543 18.661529 12.302245 -6.327176 0.526664 10.013486 0.000000 0.000000 0.000000 -3.657398 -19.344491 -51.654972 11.642720 18.211375 64.824376 0.397253 -1.695152 12.661017 0.476580 -4.418477 -12.258375 0.000000 0.000000 0.000000 31.091965 -1.959210 23.512368 -0.118947 -2.223310 6.123334 -2.880971 -20.811798 31.912469 -1.173723 -6.849406 19.280516 7.811888 1.090406 10.712894 -0.217772 2.454067 -0.942394 -5.031510 0.910176 -6.697446 -0.489300 -0.522923 -5.100975 1.096720 -0.648985 -4.107567 0.403419 -0.317544 -0.410372 0.000000 0.000000 0.000000 8.075734 38.338611 -45.175249 126.336006 -54.369333 90.872732 36.955271 -33.685532 -8.505954 0.000000 0.000000 0.000000 -7.125000 0.000000 0.000000 8.888987 40.423733 1.008228 0.000000 0.000000 0.000000 -12.586776 -17.737101 41.501495 -118.075044 -56.799034 -84.052065 -43.027436 -27.706016 -26.590222 0.000000 0.000000 0.000000 7.125000 0.000000 0.000000 -7.530172 -4.160869 -8.128387
0.579337 18.680448 12.456607 -6.369805 0.615208 10.047874 0.000000 0.000000 0.000000 -3.569430 -19.516869 -51.466906 11.161754 18.002172 63.292742 0.395227 -2.026410 12.796871 0.509325 -4.570759 -12.688772 0.000000 0.000000 0.000000 31.175361 -2.022127 23.809786 -0.120973 -2.242448 6.176285 -2.949473 -20.598188 32.193761 -1.283841 -7.168207 20.219559 7.896161 1.091911 10.645651 -0.243043 2.461432 -0.984393 -5.105406 0.909026 -6.699199 -0.478321 -0.540062 -5.055772 1.102058 -0.672120 -4.131332 0.403200 -0.329453 -0.424664 0.000000 0.000000 0.000000 8.030285 38.500064 -45.112086 126.561828 -54.290947 91.056335 36.859910 -33.863852 -8.159939 0.000000 0.000000 0.000000 -7.125000 0.000000 0.000000 8.781469 39.989968 1.092473 0.000000 0.000000 0.000000 -12.678605 -17.638975 41.685947 -118.442333 -56.709806 -84.359503 -42.627292 -27.152659 -26.377487 0.000000 0.000000 0.000000 7.125000 0.000000 0.000000 -7.358643 -3.753223 -7.889669
